<svg viewBox="0 0 200 187" xmlns="http://www.w3.org/2000/svg" xmlns:xlink="http://www.w3.org/1999/xlink">
    <mask id="mask0" mask-type="alpha">
        <path d="M190.312 36.4879C206.582 62.1187 201.309 102.826 182.328 134.186C163.346 165.547 
        130.807 187.559 100.226 186.353C69.6454 185.297 41.0228 161.023 21.7403 129.362C2.45775 
        97.8511 -7.48481 59.1033 6.67581 34.5279C20.9871 10.1032 59.7028 -0.149132 97.9666 
        0.00163737C136.23 0.303176 174.193 10.857 190.312 36.4879Z"/>
    </mask>
    <g mask="url(#mask0)">
        <path d="M190.312 36.4879C206.582 62.1187 201.309 102.826 182.328 134.186C163.346 
        165.547 130.807 187.559 100.226 186.353C69.6454 185.297 41.0228 161.023 21.7403 
        129.362C2.45775 97.8511 -7.48481 59.1033 6.67581 34.5279C20.9871 10.1032 59.7028 
        -0.149132 97.9666 0.00163737C136.23 0.303176 174.193 10.857 190.312 36.4879Z"/>
        <image class="home__blob-img" xlink:href="assets/img/Foto_Dastin-removebg-preview.png" />    
    </g>
</svg>


<svg viewBox="0 0 200 200" xmlns="http://www.w3.org/2000/svg" xmlns:xlink="http://www.w3.org/1999/xlink">
    <mask id="mask0" mask-type="alpha">
        <path d="M41.1,-52.4C54.2,-47.1,66.4,-36.3,71,-22.9C75.7,-9.4,72.8,6.7,64.7,17.8C56.6,28.9,43.3,35,31.6,40.3C20,45.5,10,49.8,-0.9,51.1C-11.9,52.4,-23.7,50.7,-39.3,46.8C-54.9,42.8,-74.1,36.6,-78.4,25.1C-82.6,13.6,-71.8,-3.1,-64.9,-20.1C-58.1,-37.2,-55.2,-54.6,-45,-60.8C-34.9,-67,-17.4,-62,-1.7,-59.7C14,-57.3,28.1,-57.6,41.1,-52.4Z" />
    </mask>
    <g mask="url(#mask0)">
        <path d="M41.1,-52.4C54.2,-47.1,66.4,-36.3,71,-22.9C75.7,-9.4,72.8,6.7,64.7,17.8C56.6,28.9,43.3,35,31.6,40.3C20,45.5,10,49.8,-0.9,51.1C-11.9,52.4,-23.7,50.7,-39.3,46.8C-54.9,42.8,-74.1,36.6,-78.4,25.1C-82.6,13.6,-71.8,-3.1,-64.9,-20.1C-58.1,-37.2,-55.2,-54.6,-45,-60.8C-34.9,-67,-17.4,-62,-1.7,-59.7C14,-57.3,28.1,-57.6,41.1,-52.4Z" />
    </g>
</svg>

<svg viewBox="0 0 200 200" xmlns="http://www.w3.org/2000/svg" xmlns:xlink="http://www.w3.org/1999/xlink">
    <mask id="mask0" mask-type="alpha">
        <path d="M41.6,-46.4C58,-35.8,78.1,-26.6,82.4,-13C86.6,0.6,74.8,18.5,61.6,30C48.3,41.4,33.5,46.4,17.5,55.5C1.4,64.5,-15.8,77.8,-33.1,77.4C-50.4,77,-67.7,63,-77.7,45.1C-87.7,27.3,-90.3,5.4,-84.8,-13C-79.2,-31.4,-65.4,-46.5,-49.9,-57.2C-34.4,-68,-17.2,-74.5,-2.3,-71.8C12.6,-69,25.2,-57,41.6,-46.4Z" transform="translate(100 100)"/>
    </mask>
    <g mask="url(#mask0)">
        <path d="M41.6,-46.4C58,-35.8,78.1,-26.6,82.4,-13C86.6,0.6,74.8,18.5,61.6,30C48.3,41.4,33.5,46.4,17.5,55.5C1.4,64.5,-15.8,77.8,-33.1,77.4C-50.4,77,-67.7,63,-77.7,45.1C-87.7,27.3,-90.3,5.4,-84.8,-13C-79.2,-31.4,-65.4,-46.5,-49.9,-57.2C-34.4,-68,-17.2,-74.5,-2.3,-71.8C12.6,-69,25.2,-57,41.6,-46.4Z" transform="translate(100 100)"/>
        <image class="home__blob-img" xlink:href="assets/img/Foto_Dastin-removebg-preview.png" />    
    </g>
</svg>

<svg viewBox="0 0 200 200" xmlns="http://www.w3.org/2000/svg" xmlns:xlink="http://www.w3.org/1999/xlink">
    <mask id="mask0" mask-type="alpha">
        <path d="M49.2,-62.4C62.5,-58.1,71.1,-42,71.4,-26.6C71.8,-11.2,64,3.5,57.7,17.4C51.4,31.3,46.6,44.5,37.2,54.2C27.9,63.8,13.9,70.1,0.5,69.5C-13,68.8,-25.9,61.1,-41.2,53.4C-56.5,45.6,-74.2,37.7,-82.2,24.1C-90.2,10.5,-88.6,-8.9,-83.1,-27.3C-77.5,-45.7,-68,-63.1,-53.5,-67C-39,-70.9,-19.5,-61.2,-0.8,-60.1C18,-59.1,36,-66.7,49.2,-62.4Z" transform="translate(100 100)" />
    </mask>
    <g mask="url(#mask0)">
        <path d="M49.2,-62.4C62.5,-58.1,71.1,-42,71.4,-26.6C71.8,-11.2,64,3.5,57.7,17.4C51.4,31.3,46.6,44.5,37.2,54.2C27.9,63.8,13.9,70.1,0.5,69.5C-13,68.8,-25.9,61.1,-41.2,53.4C-56.5,45.6,-74.2,37.7,-82.2,24.1C-90.2,10.5,-88.6,-8.9,-83.1,-27.3C-77.5,-45.7,-68,-63.1,-53.5,-67C-39,-70.9,-19.5,-61.2,-0.8,-60.1C18,-59.1,36,-66.7,49.2,-62.4Z" transform="translate(100 100)" />
        <image class="home__blob-img" xlink:href="assets/img/Foto_Dastin-removebg-preview.png" />    
    </g>
</svg>

<svg viewBox="0 0 200 200" xmlns="http://www.w3.org/2000/svg" xmlns:xlink="http://www.w3.org/1999/xlink">
    <mask id="mask0" mask-type="alpha">
        <path d="M43.4,-50.4C57.3,-40,70.5,-27.4,71.1,-14C71.7,-0.7,59.7,13.4,49.9,27.4C40.2,41.4,32.7,55.2,19.8,64.1C6.9,73,-11.3,77,-28.4,73C-45.5,68.9,-61.5,56.8,-72,40.6C-82.4,24.4,-87.2,4.1,-80.4,-10.7C-73.7,-25.5,-55.4,-34.9,-40.1,-45C-24.7,-55.2,-12.4,-66.1,1.2,-67.5C14.7,-68.9,29.4,-60.8,43.4,-50.4Z" transform="translate(100 100)" />
    </mask>
    <g mask="url(#mask0)">
        <path d="M43.4,-50.4C57.3,-40,70.5,-27.4,71.1,-14C71.7,-0.7,59.7,13.4,49.9,27.4C40.2,41.4,32.7,55.2,19.8,64.1C6.9,73,-11.3,77,-28.4,73C-45.5,68.9,-61.5,56.8,-72,40.6C-82.4,24.4,-87.2,4.1,-80.4,-10.7C-73.7,-25.5,-55.4,-34.9,-40.1,-45C-24.7,-55.2,-12.4,-66.1,1.2,-67.5C14.7,-68.9,29.4,-60.8,43.4,-50.4Z" transform="translate(100 100)" />
        <image class="home__blob-img" xlink:href="assets/img/Foto_Dastin-removebg-preview.png" />    
    </g>
</svg>

<svg viewBox="0 0 200 200" xmlns="http://www.w3.org/2000/svg" xmlns:xlink="http://www.w3.org/1999/xlink">
    <mask id="mask0" mask-type="alpha">
        <path d="M36.3,-50.2C48.1,-41.4,59.5,-32.2,68.8,-18.7C78.2,-5.3,85.6,12.5,81.6,27C77.5,41.5,62,52.8,46.5,59.3C31,65.8,15.5,67.5,0.2,67.2C-15.1,66.9,-30.3,64.7,-43.4,57.5C-56.6,50.2,-67.9,38,-74.5,22.9C-81.1,7.9,-83.2,-9.9,-77.1,-24C-71.1,-38.1,-57,-48.6,-42.8,-56.6C-28.6,-64.5,-14.3,-69.9,-1,-68.5C12.3,-67.1,24.5,-58.9,36.3,-50.2Z" transform="translate(100 100)" />
    </mask>
    <g mask="url(#mask0)">
        <path d="M36.3,-50.2C48.1,-41.4,59.5,-32.2,68.8,-18.7C78.2,-5.3,85.6,12.5,81.6,27C77.5,41.5,62,52.8,46.5,59.3C31,65.8,15.5,67.5,0.2,67.2C-15.1,66.9,-30.3,64.7,-43.4,57.5C-56.6,50.2,-67.9,38,-74.5,22.9C-81.1,7.9,-83.2,-9.9,-77.1,-24C-71.1,-38.1,-57,-48.6,-42.8,-56.6C-28.6,-64.5,-14.3,-69.9,-1,-68.5C12.3,-67.1,24.5,-58.9,36.3,-50.2Z" transform="translate(100 100)" />
        <image class="home__blob-img" xlink:href="assets/img/Foto_Dastin-removebg-preview.png" />    
    </g>
</svg>